# xmcd CD database file
#
# Track frame offsets:
#	150
#	9988
#	22651
#	34176
#	46235
#	57983
#	69229
#	81941
#	92171
#	102348
#	113679
#	130856
#
# Disc length: 1874 seconds
#
# Revision: 2
# Processed by: cddbd v1.5.2PL0 Copyright (c) Steve Scherf et al.
# Submitted via: CDex 1.51
#
DISCID=8b07500c
DTITLE=MILIONÁRIO E JOSÉ RICO - 1977-ESTRADA DA VIDA - VOL. 5
DYEAR=1977
DGENRE=Sertanejo
TTITLE0=ESTRADA DA VIDA
TTITLE1=BEBIDA NÃO CURA PAIXÃO
TTITLE2=MEU SOFRIMENTO
TTITLE3=DESTINO CRUEL
TTITLE4=SENTIMENTO SERTANEJO
TTITLE5=ADEUS
TTITLE6=MIGALHAS DE AMOR
TTITLE7=DOCE ILUSÃO
TTITLE8=CONSELHO
TTITLE9=CIUMENTO
TTITLE10=SOLIDÃO
TTITLE11=ESQUECIDO
EXTD=YEAR: 1977
EXTT0=
EXTT1=
EXTT2=
EXTT3=
EXTT4=
EXTT5=
EXTT6=
EXTT7=
EXTT8=
EXTT9=
EXTT10=
EXTT11=
PLAYORDER=
